<svg xmlns="http://www.w3.org/2000/svg" width="260" height="96" viewBox="0 0 260 96" fill="none">
  <rect width="260" height="96" rx="18" fill="#B7F3AE"/>
  <path d="M31 63L37 31H47L51 52L58 31H67L73 52L77 31H87L80 63H69L63 43L57 63H46L31 63Z" fill="#222222"/>
  <path d="M102 63C93 63 87 57 87 48C87 39 93 33 102 33C111 33 117 39 117 48C117 57 111 63 102 63ZM102 54C106 54 109 51 109 48C109 45 106 42 102 42C98 42 95 45 95 48C95 51 98 54 102 54Z" fill="#222222"/>
  <path d="M130 63C121 63 115 57 115 48C115 39 121 33 130 33C139 33 145 39 145 48C145 57 139 63 130 63ZM130 54C134 54 137 51 137 48C137 45 134 42 130 42C126 42 123 45 123 48C123 51 126 54 130 54Z" fill="#222222"/>
  <path d="M147 63V33H156V37C159 34 162 33 166 33C171 33 174 35 176 39C179 35 183 33 188 33C196 33 201 38 201 47V63H192V49C192 44 190 42 186 42C182 42 179 45 179 50V63H170V49C170 44 168 42 164 42C160 42 156 45 156 50V63H147Z" fill="#222222"/>
  <path d="M207 63V33H216V63H207Z" fill="#222222"/>
  <circle cx="211.5" cy="22.5" r="5.5" fill="#222222"/>
  <path d="M31 71C39 69 47 68 56 68C65 68 73 69 82 72" stroke="#222222" stroke-width="7" stroke-linecap="round"/>
</svg>
